<svg width="171" height="38" viewBox="0 0 171 38" fill="#fff" xmlns="http://www.w3.org/2000/svg">
<path d="M25 10C25 12.7614 22.7614 15 20 15C17.2386 15 15 12.7614 15 10C15 7.23858 17.2386 5 20 5C22.7614 5 25 7.23858 25 10Z" fill="#fff"/>
<path d="M16 19C16 21.7614 13.7614 24 11 24C8.23858 24 6 21.7614 6 19C6 16.2386 8.23858 14 11 14C13.7614 14 16 16.2386 16 19Z" fill="#fff"/>
<path d="M34 19C34 21.7614 31.7614 24 29 24C26.2386 24 24 21.7614 24 19C24 16.2386 26.2386 14 29 14C31.7614 14 34 16.2386 34 19Z" fill="#fff"/>
<path d="M25 28C25 30.7614 22.7614 33 20 33C17.2386 33 15 30.7614 15 28C15 25.2386 17.2386 23 20 23C22.7614 23 25 25.2386 25 28Z" fill="#fff"/>
<path d="M50.144 8.39199H54.032L62.176 30.792H58.656L57.104 26.536H47.072L45.536 30.792H42L50.144 8.39199ZM48.304 23.208H55.872L52.08 12.808L48.304 23.208Z" fill="#fff"/>
<path d="M68.3 31.096C67.4573 31.0427 66.636 30.872 65.836 30.584C65.036 30.296 64.332 29.9067 63.724 29.416C63.1267 28.9147 62.6787 28.328 62.38 27.656L65.212 26.44C65.3507 26.728 65.5907 27.0107 65.932 27.288C66.284 27.5653 66.6947 27.7947 67.164 27.976C67.6333 28.1467 68.124 28.232 68.636 28.232C69.1373 28.232 69.6013 28.1627 70.028 28.024C70.4653 27.8747 70.8227 27.6507 71.1 27.352C71.3773 27.0533 71.516 26.696 71.516 26.28C71.516 25.8107 71.356 25.448 71.036 25.192C70.7267 24.9253 70.3373 24.7227 69.868 24.584C69.3987 24.4453 68.9293 24.312 68.46 24.184C67.4147 23.9493 66.4547 23.6293 65.58 23.224C64.716 22.808 64.028 22.28 63.516 21.64C63.004 20.9893 62.748 20.1947 62.748 19.256C62.748 18.232 63.0253 17.3467 63.58 16.6C64.1347 15.8427 64.86 15.2613 65.756 14.856C66.6627 14.4507 67.628 14.248 68.652 14.248C69.932 14.248 71.1053 14.52 72.172 15.064C73.2387 15.608 74.0547 16.3547 74.62 17.304L71.98 18.872C71.82 18.552 71.58 18.264 71.26 18.008C70.94 17.752 70.5773 17.5493 70.172 17.4C69.7667 17.24 69.3453 17.1493 68.908 17.128C68.364 17.1067 67.8573 17.1707 67.388 17.32C66.9293 17.4587 66.5613 17.6827 66.284 17.992C66.0067 18.3013 65.868 18.696 65.868 19.176C65.868 19.6453 66.0333 19.9973 66.364 20.232C66.6947 20.456 67.1107 20.6373 67.612 20.776C68.124 20.9147 68.6467 21.0693 69.18 21.24C70.1293 21.5387 71.02 21.9067 71.852 22.344C72.684 22.7707 73.356 23.2987 73.868 23.928C74.38 24.5573 74.6253 25.3253 74.604 26.232C74.604 27.2347 74.3 28.1147 73.692 28.872C73.0947 29.6293 72.316 30.2053 71.356 30.6C70.396 30.9947 69.3773 31.16 68.3 31.096Z" fill="#fff"/>
<path d="M86.933 26.248L89.909 27.864C89.1837 28.8773 88.261 29.688 87.141 30.296C86.0317 30.904 84.8263 31.208 83.525 31.208C82.053 31.208 80.709 30.8293 79.493 30.072C78.2877 29.3147 77.3223 28.3013 76.597 27.032C75.8823 25.752 75.525 24.3387 75.525 22.792C75.525 21.6187 75.733 20.5253 76.149 19.512C76.565 18.488 77.1357 17.592 77.861 16.824C78.597 16.0453 79.4503 15.4373 80.421 15C81.3917 14.5627 82.4263 14.344 83.525 14.344C84.8263 14.344 86.0317 14.648 87.141 15.256C88.261 15.864 89.1837 16.68 89.909 17.704L86.933 19.32C86.485 18.7867 85.9623 18.3813 85.365 18.104C84.7677 17.816 84.1543 17.672 83.525 17.672C82.6503 17.672 81.8557 17.912 81.141 18.392C80.437 18.8613 79.877 19.4853 79.461 20.264C79.0557 21.032 78.853 21.8747 78.853 22.792C78.853 23.6987 79.061 24.5413 79.477 25.32C79.893 26.088 80.453 26.7067 81.157 27.176C81.8717 27.6453 82.661 27.88 83.525 27.88C84.1863 27.88 84.8157 27.7307 85.413 27.432C86.0103 27.1333 86.517 26.7387 86.933 26.248Z" fill="#fff"/>
<path d="M98.7913 31.208C97.3193 31.208 95.9753 30.8293 94.7593 30.072C93.5539 29.3147 92.5886 28.3013 91.8633 27.032C91.1486 25.752 90.7913 24.3387 90.7913 22.792C90.7913 21.6187 90.9993 20.5253 91.4153 19.512C91.8313 18.488 92.4019 17.592 93.1273 16.824C93.8633 16.0453 94.7166 15.4373 95.6873 15C96.6579 14.5627 97.6926 14.344 98.7913 14.344C100.018 14.344 101.143 14.6 102.167 15.112C103.191 15.6133 104.066 16.312 104.791 17.208C105.517 18.0933 106.05 19.1173 106.391 20.28C106.733 21.432 106.834 22.6587 106.695 23.96H94.3593C94.4979 24.696 94.7646 25.3627 95.1593 25.96C95.5646 26.5467 96.0766 27.0107 96.6953 27.352C97.3246 27.6933 98.0233 27.8693 98.7913 27.88C99.6019 27.88 100.338 27.6773 100.999 27.272C101.671 26.8667 102.221 26.3067 102.647 25.592L106.023 26.376C105.383 27.7947 104.418 28.9573 103.127 29.864C101.837 30.76 100.391 31.208 98.7913 31.208ZM94.2473 21.416H103.335C103.229 20.648 102.957 19.9547 102.519 19.336C102.093 18.7067 101.554 18.2107 100.903 17.848C100.263 17.4747 99.5593 17.288 98.7913 17.288C98.0339 17.288 97.3299 17.4693 96.6793 17.832C96.0393 18.1947 95.5059 18.6907 95.0793 19.32C94.6633 19.9387 94.3859 20.6373 94.2473 21.416Z" fill="#fff"/>
<path d="M123.105 20.76V30.792H119.777V21.576C119.777 20.8613 119.601 20.2107 119.249 19.624C118.908 19.0373 118.444 18.5733 117.857 18.232C117.281 17.88 116.63 17.704 115.905 17.704C115.201 17.704 114.556 17.88 113.969 18.232C113.382 18.5733 112.913 19.0373 112.561 19.624C112.209 20.2107 112.033 20.8613 112.033 21.576V30.792H108.705V14.792H112.033V16.488C112.588 15.8267 113.27 15.304 114.081 14.92C114.892 14.536 115.766 14.344 116.705 14.344C117.889 14.344 118.966 14.632 119.937 15.208C120.908 15.784 121.676 16.5573 122.241 17.528C122.817 18.4987 123.105 19.576 123.105 20.76Z" fill="#fff"/>
<path d="M137.81 6.79199H141.138V30.792H137.81V28.44C137.288 29.272 136.605 29.944 135.762 30.456C134.92 30.9573 133.933 31.208 132.802 31.208C131.64 31.208 130.552 30.9893 129.538 30.552C128.525 30.1147 127.629 29.512 126.85 28.744C126.082 27.9653 125.48 27.0693 125.042 26.056C124.605 25.0427 124.386 23.9547 124.386 22.792C124.386 21.6293 124.605 20.5413 125.042 19.528C125.48 18.504 126.082 17.608 126.85 16.84C127.629 16.0613 128.525 15.4533 129.538 15.016C130.552 14.5787 131.64 14.36 132.802 14.36C133.933 14.36 134.92 14.616 135.762 15.128C136.605 15.6293 137.288 16.2907 137.81 17.112V6.79199ZM132.834 27.992C133.773 27.992 134.594 27.7627 135.298 27.304C136.002 26.8347 136.546 26.2053 136.93 25.416C137.325 24.6267 137.522 23.752 137.522 22.792C137.522 21.8213 137.325 20.9413 136.93 20.152C136.536 19.3627 135.986 18.7387 135.282 18.28C134.589 17.8107 133.773 17.576 132.834 17.576C131.906 17.576 131.058 17.8107 130.29 18.28C129.533 18.7493 128.925 19.3787 128.466 20.168C128.018 20.9573 127.794 21.832 127.794 22.792C127.794 23.7627 128.024 24.6427 128.482 25.432C128.952 26.2107 129.565 26.8347 130.322 27.304C131.09 27.7627 131.928 27.992 132.834 27.992Z" fill="#fff"/>
<path d="M144.331 14.792H147.659V30.792H144.331V14.792ZM146.027 12.472C145.515 12.472 145.089 12.3067 144.747 11.976C144.406 11.6453 144.235 11.2293 144.235 10.728C144.235 10.2373 144.406 9.82666 144.747 9.49599C145.089 9.15466 145.51 8.98399 146.011 8.98399C146.502 8.98399 146.918 9.15466 147.259 9.49599C147.601 9.82666 147.771 10.2373 147.771 10.728C147.771 11.2293 147.601 11.6453 147.259 11.976C146.929 12.3067 146.518 12.472 146.027 12.472Z" fill="#fff"/>
<path d="M163.014 14.792H166.342V30.792H162.998L162.87 28.472C162.401 29.2933 161.766 29.9547 160.966 30.456C160.166 30.9573 159.222 31.208 158.134 31.208C156.961 31.208 155.857 30.9893 154.822 30.552C153.788 30.104 152.876 29.4853 152.086 28.696C151.308 27.9067 150.7 27 150.262 25.976C149.825 24.9413 149.606 23.832 149.606 22.648C149.606 21.5067 149.82 20.4347 150.246 19.432C150.673 18.4187 151.265 17.5333 152.022 16.776C152.78 16.0187 153.654 15.4267 154.646 15C155.649 14.5627 156.721 14.344 157.862 14.344C159.025 14.344 160.049 14.6107 160.934 15.144C161.83 15.6667 162.572 16.3387 163.158 17.16L163.014 14.792ZM158.054 27.992C158.993 27.992 159.814 27.7627 160.518 27.304C161.222 26.8347 161.766 26.2053 162.15 25.416C162.545 24.6267 162.742 23.752 162.742 22.792C162.742 21.8213 162.545 20.9413 162.15 20.152C161.756 19.3627 161.206 18.7387 160.502 18.28C159.809 17.8107 158.993 17.576 158.054 17.576C157.126 17.576 156.278 17.8107 155.51 18.28C154.742 18.7493 154.134 19.3787 153.686 20.168C153.238 20.9573 153.014 21.832 153.014 22.792C153.014 23.7627 153.244 24.6427 153.702 25.432C154.172 26.2107 154.785 26.8347 155.542 27.304C156.31 27.7627 157.148 27.992 158.054 27.992Z" fill="#fff"/>
</svg>
