<svg width="126" height="38" viewBox="0 0 126 38" fill="#fff" xmlns="http://www.w3.org/2000/svg">
<path d="M10.688 8.164V30.5H6.208V8.164H10.688ZM23.3383 12.516C25.4503 12.516 27.1569 13.188 28.4583 14.532C29.7596 15.8547 30.4103 17.7107 30.4103 20.1V30.5H25.9303V20.708C25.9303 19.3 25.5783 18.2227 24.8743 17.476C24.1703 16.708 23.2103 16.324 21.9943 16.324C20.7569 16.324 19.7756 16.708 19.0503 17.476C18.3463 18.2227 17.9943 19.3 17.9943 20.708V30.5H13.5143V12.772H17.9943V14.98C18.5916 14.212 19.3489 13.6147 20.2663 13.188C21.2049 12.74 22.2289 12.516 23.3383 12.516ZM42.8945 12.516C45.0065 12.516 46.7132 13.188 48.0145 14.532C49.3158 15.8547 49.9665 17.7107 49.9665 20.1V30.5H45.4865V20.708C45.4865 19.3 45.1345 18.2227 44.4305 17.476C43.7265 16.708 42.7665 16.324 41.5505 16.324C40.3132 16.324 39.3318 16.708 38.6065 17.476C37.9025 18.2227 37.5505 19.3 37.5505 20.708V30.5H33.0705V12.772H37.5505V14.98C38.1478 14.212 38.9052 13.6147 39.8225 13.188C40.7612 12.74 41.7852 12.516 42.8945 12.516ZM60.4988 30.788C58.7921 30.788 57.2561 30.4147 55.8908 29.668C54.5254 28.9 53.4481 27.8227 52.6588 26.436C51.8908 25.0493 51.5068 23.4493 51.5068 21.636C51.5068 19.8227 51.9014 18.2227 52.6908 16.836C53.5014 15.4493 54.6001 14.3827 55.9868 13.636C57.3734 12.868 58.9201 12.484 60.6268 12.484C62.3334 12.484 63.8801 12.868 65.2668 13.636C66.6534 14.3827 67.7414 15.4493 68.5308 16.836C69.3414 18.2227 69.7468 19.8227 69.7468 21.636C69.7468 23.4493 69.3308 25.0493 68.4988 26.436C67.6881 27.8227 66.5788 28.9 65.1708 29.668C63.7841 30.4147 62.2268 30.788 60.4988 30.788ZM60.4988 26.884C61.3094 26.884 62.0668 26.692 62.7708 26.308C63.4961 25.9027 64.0721 25.3053 64.4988 24.516C64.9254 23.7267 65.1388 22.7667 65.1388 21.636C65.1388 19.9507 64.6908 18.66 63.7948 17.764C62.9201 16.8467 61.8428 16.388 60.5628 16.388C59.2828 16.388 58.2054 16.8467 57.3308 17.764C56.4774 18.66 56.0508 19.9507 56.0508 21.636C56.0508 23.3213 56.4668 24.6227 57.2988 25.54C58.1521 26.436 59.2188 26.884 60.4988 26.884ZM78.825 26.372L83.305 12.772H88.073L81.513 30.5H76.073L69.545 12.772H74.345L78.825 26.372ZM91.2613 10.66C90.4719 10.66 89.8106 10.4147 89.2773 9.924C88.7653 9.412 88.5093 8.78267 88.5093 8.036C88.5093 7.28933 88.7653 6.67067 89.2773 6.18C89.8106 5.668 90.4719 5.412 91.2613 5.412C92.0506 5.412 92.7013 5.668 93.2133 6.18C93.7466 6.67067 94.0133 7.28933 94.0133 8.036C94.0133 8.78267 93.7466 9.412 93.2133 9.924C92.7013 10.4147 92.0506 10.66 91.2613 10.66ZM93.4693 12.772V30.5H88.9893V12.772H93.4693Z" fill="#fff"/>
<rect x="106.336" y="8.5" width="8" height="8" rx="1" fill="#fff"/>
<rect x="106.336" y="22.5" width="8" height="8" rx="1" fill="#fff"/>
</svg>
