<svg width="182" height="38" viewBox="0 0 182 38" fill="#fff" xmlns="http://www.w3.org/2000/svg">
<path d="M25.376 29.664L8.608 8.288C8.45867 8.096 8.288 7.904 8.096 7.712C7.92533 7.52 7.76533 7.36 7.616 7.232V25.536C7.616 26.4533 7.89333 27.2427 8.448 27.904C9.00267 28.5653 9.73867 28.896 10.656 28.896V29.216H4V28.896C4.93867 28.896 5.68533 28.5653 6.24 27.904C6.79467 27.2427 7.072 26.4427 7.072 25.504V6.784C6.112 6.05867 5.09867 5.64267 4.032 5.536V5.216H12.256L24.832 21.44V8.896C24.832 7.97867 24.5547 7.18933 24 6.528C23.4453 5.86667 22.7093 5.536 21.792 5.536V5.216H28.416V5.536C27.4987 5.536 26.7627 5.86667 26.208 6.528C25.6533 7.18933 25.376 7.97867 25.376 8.896V29.664Z" fill="#fff"/>
<path d="M36.4215 29.664C34.6722 29.664 33.1362 29.312 31.8135 28.608C30.5122 27.904 29.4988 26.912 28.7735 25.632C28.0482 24.352 27.6855 22.8373 27.6855 21.088C27.6855 19.3387 28.0482 17.824 28.7735 16.544C29.4988 15.264 30.5122 14.272 31.8135 13.568C33.1362 12.864 34.6722 12.512 36.4215 12.512C38.1708 12.512 39.6962 12.864 40.9975 13.568C42.2988 14.272 43.3122 15.264 44.0375 16.544C44.7628 17.824 45.1255 19.3387 45.1255 21.088C45.1255 22.8373 44.7628 24.352 44.0375 25.632C43.3122 26.912 42.2988 27.904 40.9975 28.608C39.6962 29.312 38.1708 29.664 36.4215 29.664ZM36.3895 29.248C37.1362 29.248 37.7762 28.8747 38.3095 28.128C38.8428 27.3813 39.2588 26.3893 39.5575 25.152C39.8562 23.8933 40.0055 22.528 40.0055 21.056C40.0055 19.456 39.8455 18.048 39.5255 16.832C39.2268 15.5947 38.8002 14.6347 38.2455 13.952C37.7122 13.248 37.1042 12.896 36.4215 12.896C35.6962 12.896 35.0562 13.2693 34.5015 14.016C33.9682 14.7627 33.5522 15.7547 33.2535 16.992C32.9548 18.2293 32.8055 19.584 32.8055 21.056C32.8055 22.6773 32.9655 24.1067 33.2855 25.344C33.6055 26.5813 34.0322 27.5413 34.5655 28.224C35.1202 28.9067 35.7282 29.248 36.3895 29.248Z" fill="#fff"/>
<path d="M52.5505 29.728L46.1825 15.008C45.9692 14.5173 45.6812 14.112 45.3185 13.792C44.9772 13.472 44.4972 13.3013 43.8785 13.28V12.96H52.8385V13.28C52.0918 13.3653 51.6012 13.696 51.3665 14.272C51.1532 14.848 51.2278 15.5733 51.5905 16.448L54.8865 24.16L58.1505 16.64C58.3638 16.1493 58.4705 15.6693 58.4705 15.2C58.4705 14.6667 58.3105 14.2293 57.9905 13.888C57.6705 13.5467 57.2225 13.344 56.6465 13.28V12.96H61.7025V13.28C61.1478 13.408 60.6145 13.728 60.1025 14.24C59.5905 14.752 59.1318 15.456 58.7265 16.352L52.8385 29.728H52.5505Z" fill="#fff"/>
<path d="M64.7533 29.664C63.4519 29.664 62.4066 29.312 61.6172 28.608C60.8279 27.904 60.4333 26.976 60.4333 25.824C60.4333 25.3333 60.5186 24.8747 60.6893 24.448C60.8599 24 61.1799 23.5627 61.6493 23.136C62.1399 22.7093 62.8119 22.272 63.6652 21.824C64.5186 21.3547 65.6493 20.864 67.0573 20.352L70.0333 19.264V16.864C70.0333 15.648 69.8413 14.688 69.4573 13.984C69.0732 13.2587 68.5399 12.896 67.8573 12.896C67.0466 12.9173 66.3532 13.4507 65.7772 14.496C65.2226 15.5413 64.8493 16.992 64.6572 18.848L61.2012 16.864C61.5639 15.9893 62.1186 15.2213 62.8652 14.56C63.6119 13.8987 64.4653 13.3867 65.4253 13.024C66.4066 12.6613 67.4306 12.48 68.4973 12.48C70.3106 12.48 71.7826 12.992 72.9133 14.016C74.0653 15.0187 74.6413 16.3947 74.6413 18.144V25.856C74.6413 27.0933 75.0573 27.712 75.8893 27.712C76.3799 27.712 76.8599 27.4453 77.3293 26.912L77.5853 27.136C77.0306 27.8827 76.3586 28.4907 75.5693 28.96C74.7799 29.4293 74.0119 29.664 73.2653 29.664C72.4546 29.664 71.7506 29.3867 71.1533 28.832C70.5773 28.2773 70.2146 27.5413 70.0653 26.624C69.0199 27.6907 68.1026 28.4693 67.3133 28.96C66.5452 29.4293 65.6919 29.664 64.7533 29.664ZM67.1533 27.68C67.6226 27.68 68.0706 27.5627 68.4973 27.328C68.9453 27.0933 69.4466 26.7093 70.0013 26.176L70.0333 19.68L68.7533 20.16C67.6652 20.5653 66.8333 20.9813 66.2573 21.408C65.6813 21.8133 65.2759 22.272 65.0412 22.784C64.8279 23.296 64.7212 23.8827 64.7212 24.544C64.7212 25.4613 64.9453 26.2187 65.3932 26.816C65.8626 27.392 66.4493 27.68 67.1533 27.68Z" fill="#fff"/>
<path d="M84.5863 29.664C84.0316 29.664 83.5729 29.6427 83.2103 29.6C82.8689 29.5573 82.5276 29.504 82.1863 29.44C81.8449 29.376 81.4289 29.3227 80.9383 29.28C80.4476 29.2373 79.7756 29.216 78.9223 29.216L77.8023 20.896H78.1863C78.5063 23.52 79.2316 25.5467 80.3623 26.976C81.5143 28.384 82.9863 29.088 84.7783 29.088C86.1009 29.088 87.1783 28.7147 88.0103 27.968C88.8423 27.2213 89.2583 26.2507 89.2583 25.056C89.2583 24.544 89.1623 24.0533 88.9703 23.584C88.7996 23.1147 88.5009 22.6133 88.0743 22.08C87.6476 21.5467 87.0823 20.9707 86.3783 20.352C85.6742 19.712 84.7996 18.9973 83.7543 18.208L82.4423 17.216C80.8423 16 79.7329 14.912 79.1143 13.952C78.4956 12.992 78.1863 11.9467 78.1863 10.816C78.1863 8.93867 78.8689 7.46667 80.2343 6.4C81.6209 5.312 83.4449 4.768 85.7063 4.768C86.2609 4.768 86.7089 4.78933 87.0503 4.832C87.4129 4.87467 87.7543 4.928 88.0743 4.992C88.4156 5.056 88.8103 5.10933 89.2583 5.152C89.7063 5.19467 90.2822 5.216 90.9863 5.216L91.3063 11.68H90.9863C90.6876 9.696 90.0476 8.128 89.0663 6.976C88.0849 5.824 86.9009 5.248 85.5143 5.248C84.5329 5.248 83.7436 5.536 83.1463 6.112C82.5703 6.688 82.2823 7.456 82.2823 8.416C82.2823 9.248 82.5489 10.048 83.0823 10.816C83.6369 11.5627 84.5863 12.4373 85.9303 13.44L87.3063 14.464C88.7142 15.488 89.8236 16.4373 90.6343 17.312C91.4663 18.1653 92.0636 18.9973 92.4263 19.808C92.7889 20.6187 92.9703 21.4827 92.9703 22.4C92.9703 23.808 92.6183 25.056 91.9143 26.144C91.2103 27.232 90.2289 28.0853 88.9703 28.704C87.7329 29.3013 86.2716 29.6213 84.5863 29.664Z" fill="#fff"/>
<path d="M92.7098 35.936V35.616H92.7418C93.5098 35.616 94.1284 35.3813 94.5978 34.912C95.0671 34.4427 95.3018 33.824 95.3018 33.056V15.84C95.2804 14.9013 95.0778 14.24 94.6938 13.856C94.3098 13.472 93.6484 13.28 92.7098 13.28V12.96H95.8778C97.1364 12.96 98.0004 12.8427 98.4698 12.608C98.9391 12.3733 99.2804 12.0853 99.4938 11.744H99.8138L99.8458 15.84C100.336 14.88 101.083 14.08 102.086 13.44C103.088 12.8 104.144 12.48 105.254 12.48C106.448 12.48 107.504 12.8427 108.422 13.568C109.339 14.2933 110.054 15.2853 110.566 16.544C111.099 17.7813 111.366 19.2107 111.366 20.832C111.366 22.624 111.046 24.1813 110.406 25.504C109.766 26.8267 108.859 27.8507 107.686 28.576C106.534 29.3013 105.158 29.664 103.558 29.664C102.683 29.664 101.968 29.5253 101.414 29.248C100.859 28.992 100.358 28.5547 99.9098 27.936V33.056C99.9098 33.824 100.144 34.4427 100.614 34.912C101.083 35.3813 101.702 35.616 102.47 35.616H102.502V35.936H92.7098ZM102.886 29.12C104.038 29.12 104.912 28.4053 105.51 26.976C106.086 25.5253 106.374 23.4453 106.374 20.736C106.374 16.0853 105.435 13.76 103.558 13.76C102.832 13.76 102.118 14.048 101.414 14.624C100.71 15.2 100.208 15.904 99.9098 16.736V24.192C99.9098 25.728 100.176 26.9333 100.71 27.808C101.243 28.6827 101.968 29.12 102.886 29.12Z" fill="#fff"/>
<path d="M111.785 29.216V28.896C112.532 28.896 113.086 28.7467 113.449 28.448C113.833 28.128 114.078 27.7227 114.185 27.232C114.313 26.7413 114.377 26.208 114.377 25.632V8.096C114.377 7.328 114.132 6.70933 113.641 6.24C113.172 5.77067 112.553 5.536 111.785 5.536V5.216H115.049C116.137 5.216 116.969 5.09867 117.545 4.864C118.078 4.62933 118.452 4.34133 118.665 4H118.985V16.16C119.561 15.0293 120.404 14.144 121.513 13.504C122.622 12.8427 123.806 12.512 125.065 12.512C126.068 12.512 126.921 12.7467 127.625 13.216C128.329 13.664 128.862 14.272 129.225 15.04C129.609 15.808 129.801 16.672 129.801 17.632V26.336C129.801 27.1253 130.036 27.7547 130.505 28.224C130.996 28.672 131.625 28.896 132.393 28.896V29.216H122.633V28.896C123.401 28.896 124.02 28.672 124.489 28.224C124.98 27.7547 125.225 27.1253 125.225 26.336V17.312C125.225 16.8427 125.161 16.3413 125.033 15.808C124.905 15.2533 124.67 14.784 124.329 14.4C124.009 13.9947 123.55 13.792 122.953 13.792C122.398 13.792 121.865 13.9627 121.353 14.304C120.862 14.624 120.414 15.0293 120.009 15.52C119.604 16.0107 119.262 16.5013 118.985 16.992V25.632C118.985 26.208 119.038 26.7413 119.145 27.232C119.273 27.7227 119.518 28.128 119.881 28.448C120.265 28.7467 120.83 28.896 121.577 28.896V29.216H111.785Z" fill="#fff"/>
<path d="M140.112 29.6C138.64 29.6 137.328 29.2373 136.176 28.512C135.045 27.7867 134.16 26.784 133.52 25.504C132.88 24.2027 132.56 22.72 132.56 21.056C132.56 19.3493 132.912 17.856 133.616 16.576C134.32 15.296 135.28 14.304 136.496 13.6C137.733 12.8747 139.13 12.512 140.688 12.512C141.989 12.512 143.141 12.768 144.144 13.28C145.168 13.792 145.978 14.5173 146.576 15.456C147.194 16.3733 147.546 17.44 147.632 18.656L147.664 19.136H136.912V19.296C136.912 21.5573 137.413 23.3707 138.416 24.736C139.418 26.08 140.762 26.752 142.448 26.752C143.472 26.752 144.442 26.5067 145.36 26.016C146.298 25.504 147.056 24.8213 147.632 23.968L147.92 24.064C147.557 25.152 146.992 26.112 146.224 26.944C145.456 27.776 144.549 28.4267 143.504 28.896C142.458 29.3653 141.328 29.6 140.112 29.6ZM136.944 18.656H143.44C143.44 16.9707 143.162 15.6053 142.608 14.56C142.074 13.5147 141.317 12.992 140.336 12.992C139.397 12.992 138.618 13.504 138 14.528C137.381 15.552 137.029 16.928 136.944 18.656Z" fill="#fff"/>
<path d="M148.071 29.216V28.896H148.103C148.871 28.896 149.489 28.6613 149.959 28.192C150.428 27.7227 150.663 27.104 150.663 26.336V15.84C150.663 15.0293 150.492 14.4 150.151 13.952C149.831 13.504 149.137 13.28 148.071 13.28V12.96H151.239C152.369 12.96 153.223 12.8533 153.799 12.64C154.375 12.4053 154.78 12.1067 155.015 11.744H155.175L155.207 16.992C155.484 16.352 155.836 15.68 156.263 14.976C156.711 14.272 157.265 13.6853 157.927 13.216C158.609 12.7253 159.42 12.48 160.359 12.48C160.679 12.48 161.02 12.512 161.383 12.576C161.745 12.64 162.129 12.7573 162.535 12.928L161.287 16.672C160.519 16.2453 159.847 15.9467 159.271 15.776C158.716 15.6053 158.225 15.52 157.799 15.52C157.073 15.52 156.529 15.744 156.167 16.192C155.825 16.64 155.527 17.1733 155.271 17.792V26.336C155.271 27.104 155.505 27.7227 155.975 28.192C156.444 28.6613 157.063 28.896 157.831 28.896H157.863V29.216H148.071Z" fill="#fff"/>
<path d="M169.862 29.6C168.39 29.6 167.078 29.2373 165.926 28.512C164.795 27.7867 163.91 26.784 163.27 25.504C162.63 24.2027 162.31 22.72 162.31 21.056C162.31 19.3493 162.662 17.856 163.366 16.576C164.07 15.296 165.03 14.304 166.246 13.6C167.483 12.8747 168.88 12.512 170.438 12.512C171.739 12.512 172.891 12.768 173.894 13.28C174.918 13.792 175.728 14.5173 176.326 15.456C176.944 16.3733 177.296 17.44 177.382 18.656L177.414 19.136H166.662V19.296C166.662 21.5573 167.163 23.3707 168.166 24.736C169.168 26.08 170.512 26.752 172.198 26.752C173.222 26.752 174.192 26.5067 175.11 26.016C176.048 25.504 176.806 24.8213 177.382 23.968L177.67 24.064C177.307 25.152 176.742 26.112 175.974 26.944C175.206 27.776 174.299 28.4267 173.254 28.896C172.208 29.3653 171.078 29.6 169.862 29.6ZM166.694 18.656H173.19C173.19 16.9707 172.912 15.6053 172.358 14.56C171.824 13.5147 171.067 12.992 170.086 12.992C169.147 12.992 168.368 13.504 167.75 14.528C167.131 15.552 166.779 16.928 166.694 18.656Z" fill="#fff"/>
</svg>
