<svg width="113" height="29" viewBox="0 0 113 29" fill="#fff" xmlns="http://www.w3.org/2000/svg">
<path d="M25.0335 10.8212H17.7675V3.58875H10.8043C10.8043 7.58432 7.57504 10.8212 3.58887 10.8212V17.8008H10.8043V25.0333H17.7675C17.7675 21.0378 21.0473 17.8008 25.0335 17.8008V10.8212Z" fill="#fff"/>
<path d="M38.6806 22.0333C37.6565 22.0333 36.7045 21.8455 35.8246 21.4701C34.9592 21.0946 34.2092 20.5747 33.5745 19.9105C32.9543 19.2317 32.4999 18.4447 32.2114 17.5494L34.6563 16.488C35.0457 17.4122 35.6083 18.1415 36.3439 18.6758C37.0795 19.1956 37.9089 19.4556 38.832 19.4556C39.3513 19.4556 39.7985 19.3762 40.1735 19.2173C40.5629 19.044 40.8586 18.813 41.0606 18.5241C41.2769 18.2353 41.3851 17.8888 41.3851 17.4844C41.3851 17.0079 41.2409 16.618 40.9524 16.3147C40.6783 15.997 40.26 15.7515 39.6975 15.5782L36.6035 14.5818C35.3486 14.1919 34.4039 13.6071 33.7692 12.8272C33.1346 12.0474 32.8172 11.1305 32.8172 10.0763C32.8172 9.15206 33.0408 8.33616 33.488 7.62856C33.9495 6.92096 34.5842 6.37221 35.3919 5.98231C36.2141 5.57796 37.1517 5.37579 38.2046 5.37579C39.171 5.37579 40.0581 5.54908 40.8658 5.89566C41.6736 6.2278 42.3659 6.69713 42.9429 7.30364C43.5343 7.89571 43.9742 8.59609 44.2627 9.40478L41.8395 10.4878C41.5221 9.67915 41.0461 9.0582 40.4115 8.62497C39.7768 8.17731 39.0412 7.95348 38.2046 7.95348C37.7142 7.95348 37.2815 8.04012 36.9064 8.21341C36.5314 8.37226 36.2357 8.60331 36.0194 8.90657C35.8174 9.19539 35.7165 9.54197 35.7165 9.94631C35.7165 10.394 35.8607 10.7911 36.1492 11.1377C36.4377 11.4698 36.8776 11.7297 37.469 11.9175L40.4331 12.8489C41.7169 13.2677 42.6761 13.8453 43.3107 14.5818C43.9598 15.3183 44.2843 16.2281 44.2843 17.3111C44.2843 18.2353 44.0463 19.0512 43.5703 19.7588C43.0943 20.4664 42.4381 21.0224 41.6015 21.4267C40.7649 21.8311 39.7912 22.0333 38.6806 22.0333Z" fill="#fff"/>
<path d="M45.8305 26.1056V9.98963H48.4917V12.329L48.2321 11.7442C48.6359 11.1088 49.184 10.6178 49.8764 10.2712C50.5687 9.91021 51.3693 9.7297 52.278 9.7297C53.3886 9.7297 54.3911 10.0041 55.2854 10.5528C56.1797 11.1016 56.8865 11.8381 57.4057 12.7623C57.9394 13.6865 58.2063 14.7262 58.2063 15.8815C58.2063 17.0223 57.9466 18.062 57.4274 19.0007C56.9081 19.9393 56.2013 20.683 55.307 21.2318C54.4127 21.7661 53.3959 22.0333 52.2564 22.0333C51.4053 22.0333 50.6192 21.8672 49.898 21.5351C49.1913 21.1885 48.6287 20.6975 48.2104 20.0621L48.6648 19.4989V26.1056H45.8305ZM51.9318 19.4339C52.5809 19.4339 53.1579 19.2823 53.6627 18.979C54.1675 18.6758 54.557 18.257 54.831 17.7227C55.1195 17.1884 55.2638 16.5746 55.2638 15.8815C55.2638 15.1883 55.1195 14.5818 54.831 14.0619C54.557 13.5276 54.1675 13.1088 53.6627 12.8056C53.1579 12.4879 52.5809 12.329 51.9318 12.329C51.3116 12.329 50.749 12.4807 50.2442 12.7839C49.7538 13.0872 49.3643 13.5132 49.0759 14.0619C48.8018 14.5962 48.6648 15.2028 48.6648 15.8815C48.6648 16.5746 48.8018 17.1884 49.0759 17.7227C49.3643 18.257 49.7538 18.6758 50.2442 18.979C50.749 19.2823 51.3116 19.4339 51.9318 19.4339Z" fill="#fff"/>
<path d="M65.0838 22.0333C63.8722 22.0333 62.812 21.7589 61.9033 21.2101C60.9946 20.6614 60.2878 19.9177 59.783 18.979C59.2781 18.0404 59.0257 17.0006 59.0257 15.8598C59.0257 14.6757 59.2781 13.6287 59.783 12.7189C60.3023 11.7947 61.0018 11.0655 61.8817 10.5312C62.776 9.99685 63.7712 9.7297 64.8675 9.7297C65.7906 9.7297 66.5983 9.88132 67.2907 10.1846C67.9975 10.4878 68.5961 10.9066 69.0865 11.4409C69.5769 11.9752 69.9519 12.589 70.2116 13.2821C70.4712 13.9609 70.601 14.6973 70.601 15.4916C70.601 15.6937 70.5866 15.9031 70.5577 16.1198C70.5433 16.3364 70.5072 16.5241 70.4495 16.6829H61.3624V14.5168H68.8485L67.507 15.5349C67.6369 14.8706 67.6008 14.2786 67.3989 13.7587C67.2114 13.2388 66.894 12.8272 66.4469 12.524C66.0142 12.2207 65.4877 12.0691 64.8675 12.0691C64.2761 12.0691 63.7496 12.2207 63.288 12.524C62.8265 12.8128 62.4731 13.246 62.2279 13.8237C61.9971 14.3869 61.9105 15.0728 61.9682 15.8815C61.9105 16.6035 62.0043 17.2461 62.2495 17.8093C62.5091 18.3581 62.8842 18.7841 63.3746 19.0873C63.8794 19.3906 64.4564 19.5422 65.1054 19.5422C65.7545 19.5422 66.3026 19.405 66.7498 19.1307C67.2114 18.8563 67.572 18.488 67.8316 18.0259L70.125 19.1523C69.8942 19.7155 69.5336 20.2137 69.0432 20.6469C68.5528 21.0802 67.9686 21.4195 67.2907 21.665C66.6272 21.9105 65.8916 22.0333 65.0838 22.0333Z" fill="#fff"/>
<path d="M77.5528 22.0333C76.3844 22.0333 75.3315 21.7661 74.3939 21.2318C73.4708 20.683 72.7423 19.9466 72.2087 19.0224C71.675 18.0837 71.4081 17.0295 71.4081 15.8598C71.4081 14.6901 71.675 13.6432 72.2087 12.7189C72.7423 11.7947 73.4708 11.0655 74.3939 10.5312C75.3315 9.99685 76.3844 9.7297 77.5528 9.7297C78.3894 9.7297 79.1682 9.88132 79.8895 10.1846C80.6106 10.4734 81.2309 10.8777 81.7501 11.3976C82.2838 11.903 82.6661 12.5096 82.8969 13.2172L80.4087 14.3002C80.1924 13.7081 79.8245 13.2316 79.3053 12.8706C78.8004 12.5096 78.2163 12.329 77.5528 12.329C76.9325 12.329 76.3772 12.4807 75.8868 12.7839C75.4108 13.0872 75.0358 13.506 74.7617 14.0403C74.4877 14.5746 74.3506 15.1883 74.3506 15.8815C74.3506 16.5746 74.4877 17.1884 74.7617 17.7227C75.0358 18.257 75.4108 18.6758 75.8868 18.979C76.3772 19.2823 76.9325 19.4339 77.5528 19.4339C78.2307 19.4339 78.8221 19.2534 79.3269 18.8924C79.8318 18.5314 80.1924 18.0476 80.4087 17.4411L82.8969 18.5675C82.6661 19.2317 82.291 19.831 81.7718 20.3653C81.2525 20.8852 80.6323 21.2968 79.9111 21.6C79.1899 21.8889 78.4038 22.0333 77.5528 22.0333Z" fill="#fff"/>
<path d="M89.5477 21.9033C88.2207 21.9033 87.1894 21.5423 86.4538 20.8202C85.7326 20.0838 85.372 19.0512 85.372 17.7227V12.524H83.3382V9.98963H83.5546C84.1315 9.98963 84.5787 9.838 84.896 9.53475C85.2133 9.23149 85.372 8.79104 85.372 8.21341V7.30364H88.2063V9.98963H90.9108V12.524H88.2063V17.5711C88.2063 17.961 88.2712 18.2931 88.401 18.5675C88.5453 18.8418 88.7616 19.0512 89.0501 19.1956C89.353 19.3401 89.7352 19.4123 90.1968 19.4123C90.2978 19.4123 90.4132 19.405 90.543 19.3906C90.6872 19.3762 90.8243 19.3617 90.9541 19.3473V21.7733C90.7521 21.8022 90.5214 21.8311 90.2617 21.86C90.0021 21.8889 89.7641 21.9033 89.5477 21.9033Z" fill="#fff"/>
<path d="M92.2541 21.7733V9.98963H94.9153V12.6106L94.699 12.2207C94.973 11.3398 95.3985 10.7261 95.9755 10.3795C96.5669 10.033 97.2737 9.85966 98.0958 9.85966H98.7882V12.3724H97.7713C96.9635 12.3724 96.3145 12.6251 95.824 13.1305C95.3336 13.6215 95.0884 14.3147 95.0884 15.21V21.7733H92.2541Z" fill="#fff"/>
<path d="M103.051 22.0333C102.229 22.0333 101.515 21.8961 100.909 21.6217C100.303 21.3473 99.8344 20.9574 99.5027 20.452C99.1709 19.9321 99.005 19.3328 99.005 18.6541C99.005 18.0043 99.1493 17.4266 99.4378 16.9212C99.7262 16.4013 100.173 15.9681 100.779 15.6215C101.385 15.275 102.149 15.0295 103.073 14.8851L106.924 14.2569V16.423L103.614 16.9862C103.051 17.0873 102.633 17.2678 102.359 17.5277C102.085 17.7877 101.948 18.127 101.948 18.5458C101.948 18.9502 102.099 19.2751 102.402 19.5206C102.719 19.7516 103.109 19.8671 103.57 19.8671C104.162 19.8671 104.681 19.7444 105.128 19.4989C105.59 19.239 105.943 18.8852 106.188 18.4375C106.448 17.9898 106.578 17.4988 106.578 16.9645V13.932C106.578 13.4265 106.376 13.0078 105.972 12.6756C105.582 12.329 105.063 12.1558 104.414 12.1558C103.808 12.1558 103.267 12.3218 102.791 12.654C102.33 12.9717 101.991 13.3977 101.774 13.932L99.4594 12.8056C99.6902 12.1846 100.051 11.6503 100.541 11.2027C101.046 10.7406 101.637 10.3795 102.315 10.1196C102.993 9.85966 103.729 9.7297 104.522 9.7297C105.489 9.7297 106.34 9.91021 107.075 10.2712C107.811 10.6178 108.381 11.1088 108.785 11.7442C109.203 12.3651 109.412 13.0944 109.412 13.932V21.7733H106.729V19.7588L107.335 19.7155C107.032 20.2209 106.671 20.6469 106.253 20.9935C105.835 21.3257 105.359 21.5856 104.825 21.7733C104.291 21.9466 103.7 22.0333 103.051 22.0333Z" fill="#fff"/>
</svg>
